<svg xmlns="http://www.w3.org/2000/svg" viewBox="0 0 100 100"><g class="nc-icon-wrapper">
  <defs>
    
    <symbol id="a" data-name="New Symbol" viewBox="0 0 81 81">
      <circle class="a" cx="40.5" cy="40.5" r="40" style=" stroke: #daedf7; stroke-miterlimit: 10;" fill="#e8f4fa"/>
    </symbol>
  </defs>
  <title>magician-show-trick-5--entertainment-magic-show-magician-floating-LEVITATING-MAGIC-TRICK-SHOW-male</title>
  <g>
    <use width="81" height="81" transform="translate(9.074 7.691)" href="#a"/>
    <g>
      <ellipse class="b" cx="50" cy="90.644" rx="13.313" ry="1.997" style=" opacity: 0.15;" fill="#45413c"/>
      <g>
        <g>
          <ellipse class="c" cx="52.796" cy="78.264" rx="2.796" ry="4.393" style=" stroke: #45413c; stroke-linejoin: round; stroke-linecap: round;" fill="#525252"/>
          <ellipse class="c" cx="47.204" cy="78.264" rx="2.796" ry="4.393" style=" stroke: #45413c; stroke-linejoin: round; stroke-linecap: round;" fill="#525252"/>
          <g>
            <path class="d" d="M54.793,29.939,74.762,66.682C57.455,62.688,64.378,73.87,50,73.87s-7.455-11.182-24.762-7.188L45.207,29.939Z" style="" fill="#ff6242"/>
            <path class="e" d="M64.378,51.505a9.58,9.58,0,0,0,2.017-.218l-11.6-21.348H45.207L33.6,51.287a9.536,9.536,0,0,0,6.81-1.068l1.276,21.42C43.393,72.9,45.773,73.87,50,73.87s6.607-.969,8.309-2.231l1.276-21.42A9.539,9.539,0,0,0,64.378,51.505Z" style="" fill="#e04122"/>
            <path class="f" d="M54.793,29.939,74.762,66.682C57.455,62.688,64.378,73.87,50,73.87s-7.455-11.182-24.762-7.188L45.207,29.939Z" style="stroke: #45413c; stroke-linejoin: round; stroke-linecap: round; fill: none;"/>
          </g>
          <g>
            <polygon class="g" points="42.811 51.505 44.409 77.065 55.591 77.065 57.189 51.505 42.811 51.505" style="" fill="#656769"/>
            <polygon class="h" points="56.531 62.022 57.189 51.505 42.811 51.505 43.468 62.022 56.531 62.022" style="" fill="#525252"/>
            <line class="f" x1="50" y1="51.505" x2="50" y2="77.065" style="stroke: #45413c; stroke-linejoin: round; stroke-linecap: round; fill: none;"/>
            <polygon class="f" points="42.811 51.505 44.409 77.065 55.591 77.065 57.189 51.505 42.811 51.505" style="stroke: #45413c; stroke-linejoin: round; stroke-linecap: round; fill: none;"/>
          </g>
          <g>
            <path class="g" d="M42.811,41.92V57.9H57.189V41.92h4.792v-1.6a11.981,11.981,0,0,0-23.962,0v1.6Z" style="" fill="#656769"/>
            <path class="i" d="M50,28.341A11.982,11.982,0,0,0,38.018,40.322v1.6h.2a11.97,11.97,0,0,1,23.562,0h.2v-1.6A11.981,11.981,0,0,0,50,28.341Z" style="" fill="#87898c"/>
            <path class="f" d="M42.811,41.92V57.9H57.189V41.92h4.792v-1.6a11.981,11.981,0,0,0-23.962,0v1.6Z" style="stroke: #45413c; stroke-linejoin: round; stroke-linecap: round; fill: none;"/>
            <path class="j" d="M61.981,40.322v1.6a2.4,2.4,0,0,0,4.793,0h4.793a7.189,7.189,0,1,1-14.378,0v-1.6" style="stroke: #45413c; stroke-linejoin: round; stroke-linecap: round; fill: #656769;"/>
            <path class="k" d="M72.365,37.127h-.8a4.793,4.793,0,0,0-4.793,4.793h5.591a2.4,2.4,0,1,0,0-4.793Z" style="stroke: #45413c; stroke-linejoin: round; stroke-linecap: round; fill: #ffda8f;"/>
            <path class="j" d="M38.019,40.322v1.6a2.4,2.4,0,0,1-4.793,0H28.433a7.189,7.189,0,0,0,14.378,0v-1.6" style="stroke: #45413c; stroke-linejoin: round; stroke-linecap: round; fill: #656769;"/>
            <path class="k" d="M27.635,37.127h.8a4.793,4.793,0,0,1,4.793,4.793H27.635a2.4,2.4,0,1,1,0-4.793Z" style="stroke: #45413c; stroke-linejoin: round; stroke-linecap: round; fill: #ffda8f;"/>
          </g>
          <g>
            <path class="l" d="M50,49.1l5.3-19.525a12,12,0,0,0-10.6.005Z" style="stroke: #45413c; stroke-linejoin: round; fill: #fff;"/>
            <polygon class="l" points="49.992 49.091 49.997 49.109 49.999 49.102 49.992 49.091" style="stroke: #45413c; stroke-linejoin: round; fill: #fff;"/>
          </g>
          <line class="f" x1="50" y1="28.341" x2="50" y2="57.895" style="stroke: #45413c; stroke-linejoin: round; stroke-linecap: round; fill: none;"/>
          <path class="f" d="M55.3,29.576,50,49.109l6.39-10.033V35.082l2.639-2.639A12.032,12.032,0,0,0,55.3,29.576Z" style="stroke: #45413c; stroke-linejoin: round; stroke-linecap: round; fill: none;"/>
          <path class="f" d="M44.7,29.576,50,49.109l-6.39-10.033V35.082l-2.639-2.639A12.032,12.032,0,0,1,44.7,29.576Z" style="stroke: #45413c; stroke-linejoin: round; stroke-linecap: round; fill: none;"/>
          <polygon class="k" points="52.599 28.69 49.985 31.19 47.401 28.69 47.407 24.755 52.605 24.755 52.599 28.69" style="stroke: #45413c; stroke-linejoin: round; stroke-linecap: round; fill: #ffda8f;"/>
          <g>
            <path class="m" d="M50,30.689l-.777-.666a7.029,7.029,0,0,0-3.218-1.575,1.331,1.331,0,0,0-1.6,1.306v1.869a1.332,1.332,0,0,0,1.6,1.306,7.039,7.039,0,0,0,3.218-1.575Z" style="stroke: #45413c; stroke-linejoin: round; fill: #ff6242;"/>
            <path class="m" d="M50,30.689l.777-.666A7.029,7.029,0,0,1,54,28.448a1.331,1.331,0,0,1,1.6,1.306v1.869A1.332,1.332,0,0,1,54,32.929a7.039,7.039,0,0,1-3.218-1.575Z" style="stroke: #45413c; stroke-linejoin: round; fill: #ff6242;"/>
            <path class="m" d="M51.6,30.689a1.6,1.6,0,1,1-1.6-1.6A1.6,1.6,0,0,1,51.6,30.689Z" style="stroke: #45413c; stroke-linejoin: round; fill: #ff6242;"/>
          </g>
        </g>
        <g>
          <path class="n" d="M29.533,14.123a1.3,1.3,0,0,1-.7,1.7l-2.026.839a1.3,1.3,0,0,1-1.7-.7l-1.451-3.5a1.3,1.3,0,0,1,.7-1.7l2.026-.839a1.3,1.3,0,0,1,1.7.7Z" style="stroke: #45413c; stroke-linejoin: round; stroke-linecap: round; fill: #fff;"/>
          <path class="n" d="M20.245,20.039a1.3,1.3,0,0,1,0,1.838L18.7,23.428a1.3,1.3,0,0,1-1.839,0l-2.68-2.68a1.3,1.3,0,0,1,0-1.839l1.551-1.55a1.3,1.3,0,0,1,1.838,0Z" style="stroke: #45413c; stroke-linejoin: round; stroke-linecap: round; fill: #fff;"/>
          <path class="n" d="M13.4,28.691a1.3,1.3,0,0,1,.7,1.7l-.839,2.026a1.3,1.3,0,0,1-1.7.7l-3.5-1.45a1.3,1.3,0,0,1-.7-1.7L8.2,27.945a1.3,1.3,0,0,1,1.7-.7Z" style="stroke: #45413c; stroke-linejoin: round; stroke-linecap: round; fill: #fff;"/>
          <path class="n" d="M70.467,14.123a1.3,1.3,0,0,0,.7,1.7l2.026.839a1.3,1.3,0,0,0,1.7-.7l1.451-3.5a1.3,1.3,0,0,0-.7-1.7l-2.026-.839a1.3,1.3,0,0,0-1.7.7Z" style="stroke: #45413c; stroke-linejoin: round; stroke-linecap: round; fill: #fff;"/>
          <path class="n" d="M79.755,20.039a1.3,1.3,0,0,0,0,1.838l1.55,1.551a1.3,1.3,0,0,0,1.839,0l2.68-2.68a1.3,1.3,0,0,0,0-1.839l-1.551-1.55a1.3,1.3,0,0,0-1.838,0Z" style="stroke: #45413c; stroke-linejoin: round; stroke-linecap: round; fill: #fff;"/>
          <path class="n" d="M86.6,28.691a1.3,1.3,0,0,0-.7,1.7l.839,2.026a1.3,1.3,0,0,0,1.7.7l3.5-1.45a1.3,1.3,0,0,0,.7-1.7L91.8,27.945a1.3,1.3,0,0,0-1.7-.7Z" style="stroke: #45413c; stroke-linejoin: round; stroke-linecap: round; fill: #fff;"/>
        </g>
        <g>
          <g>
            <path class="k" d="M59.319,19.343a1.641,1.641,0,0,0-1.331-1.6V16.68a7.988,7.988,0,0,0-15.976,0v1.066a1.631,1.631,0,0,0,.168,3.228,7.989,7.989,0,0,0,15.64,0A1.649,1.649,0,0,0,59.319,19.343Z" style="stroke: #45413c; stroke-linejoin: round; stroke-linecap: round; fill: #ffda8f;"/>
            <path class="o" d="M46.672,20.341a1,1,0,1,1-1-1A1,1,0,0,1,46.672,20.341Z" style="" fill="#ffbe3d"/>
            <circle class="o" cx="54.327" cy="20.341" r="0.998" style="" fill="#ffbe3d"/>
            <path class="f" d="M48,22.732a3.6,3.6,0,0,0,3.994,0" style="stroke: #45413c; stroke-linejoin: round; stroke-linecap: round; fill: none;"/>
          </g>
          <path class="p" d="M50,8.693a7.987,7.987,0,0,0-7.988,7.987v.8c0-.024.007-.046.007-.07A2.223,2.223,0,0,0,44.206,15.2a1.581,1.581,0,0,1,1.853-1.3A20.651,20.651,0,0,0,50,14.284Z" style="stroke: #45413c; stroke-linejoin: round; stroke-linecap: round; fill: #947063;"/>
          <path class="q" d="M58.7,19.161c1.955-12.286-8.029-11.8-8.029-11.8a3.837,3.837,0,0,0-3.994,3.994c0,1.838,1.912,3.644,3.328,3.328s3.384-1.161,2.719,1.5c0,0,2.606-.067,2.4-2.355C55.118,13.829,55.325,16.68,58.7,19.161Z" style="" fill="#614b44"/>
          <path class="r" d="M50.666,9.914s7.523-.366,8.23,7.574c.823-10.567-8.23-10.127-8.23-10.127a3.837,3.837,0,0,0-3.994,3.994,3.055,3.055,0,0,0,.223,1.116A3.858,3.858,0,0,1,50.666,9.914Z" style="" fill="#947063"/>
          <path class="f" d="M58.7,19.161c1.955-12.286-8.029-11.8-8.029-11.8a3.837,3.837,0,0,0-3.994,3.994c0,1.838,1.912,3.644,3.328,3.328s3.384-1.161,2.719,1.5c0,0,2.606-.067,2.4-2.355C55.118,13.829,55.325,16.68,58.7,19.161Z" style="stroke: #45413c; stroke-linejoin: round; stroke-linecap: round; fill: none;"/>
        </g>
        <g>
          <path class="f" d="M46.556,17.971a1.133,1.133,0,0,1,1.6,0" style="stroke: #45413c; stroke-linejoin: round; stroke-linecap: round; fill: none;"/>
          <path class="f" d="M52.964,17.971a1.133,1.133,0,0,1,1.6,0" style="stroke: #45413c; stroke-linejoin: round; stroke-linecap: round; fill: none;"/>
        </g>
      </g>
    </g>
  </g>
</g></svg>