<svg version="1.1" xmlns="http://www.w3.org/2000/svg" width="475" height="512" viewBox="0 0 475 512"><title>download</title><path d="M365.714 384c0-10-8.286-18.286-18.286-18.286s-18.286 8.286-18.286 18.286 8.286 18.286 18.286 18.286 18.286-8.286 18.286-18.286zM438.857 384c0-10-8.286-18.286-18.286-18.286s-18.286 8.286-18.286 18.286 8.286 18.286 18.286 18.286 18.286-8.286 18.286-18.286zM475.428 320v91.428c0 15.143-12.286 27.428-27.428 27.428h-420.572c-15.143 0-27.428-12.286-27.428-27.428v-91.428c0-15.143 12.286-27.428 27.428-27.428h132.857l38.571 38.857c10.572 10.286 24.286 16 38.857 16s28.285-5.714 38.857-16l38.857-38.857h132.572c15.143 0 27.428 12.286 27.428 27.428zM382.572 157.429c2.857 6.857 1.428 14.857-4 20l-128 128c-3.429 3.714-8.286 5.428-12.857 5.428s-9.429-1.714-12.857-5.428l-128-128c-5.428-5.143-6.857-13.143-4-20 2.857-6.572 9.428-11.143 16.857-11.143h73.143v-128c0-10 8.286-18.285 18.286-18.285h73.143c10 0 18.286 8.286 18.286 18.285v128h73.143c7.428 0 14 4.571 16.857 11.143z"></path></svg>