<svg version="1.1" xmlns="http://www.w3.org/2000/svg" width="475" height="512" viewBox="0 0 475 512"><title>twitter</title><path d="M462.857 116.572c-12.572 18.285-28.286 34.572-46.286 47.715 0.286 4 0.286 8 0.286 12 0 122-92.857 262.572-262.572 262.572-52.285 0-100.857-15.143-141.714-41.428 7.428 0.857 14.572 1.143 22.285 1.143 43.143 0 82.857-14.572 114.572-39.428-40.572-0.857-74.572-27.428-86.285-64 5.715 0.857 11.428 1.428 17.428 1.428 8.285 0 16.572-1.143 24.285-3.143-42.285-8.572-74-45.714-74-90.572v-1.143c12.285 6.857 26.572 11.143 41.715 11.714-24.857-16.571-41.143-44.857-41.143-76.857 0-17.143 4.572-32.857 12.572-46.572 45.428 56 113.715 92.572 190.286 96.572-1.429-6.857-2.286-14-2.286-21.143 0-50.857 41.143-92.285 92.286-92.285 26.572 0 50.572 11.143 67.428 29.143 20.857-4 40.857-11.715 58.572-22.285-6.857 21.428-21.428 39.428-40.572 50.857 18.572-2 36.572-7.143 53.143-14.285z"></path></svg>